/* XPM */
static char *_6a184bc65a24d61a774ac08fe679a15EauyRaO7r5apiwSx[] = {
/* columns rows colors chars-per-pixel */
"128 128 2 1 ",
"  c None",
". c black",
/* pixels */
"                                                                                                                                ",
"                                                                                                                                ",
"                                                                                                                                ",
"                                                                                                                                ",
"                                                                                                                                ",
"                                                                                                                                ",
"                                                                                                                                ",
"                                                                                                                                ",
"                                                                                                                                ",
"                  .......                ...                ........               ...                                          ",
"               .............            .....             ............             ....                                         ",
"              ...............           .....           ................           ....           ..                            ",
"             .................          .....          ..................          ....          ....          ....             ",
"            ...................         .....         ....................         ....         ......        .....             ",
"           .......       .......        .....         .......      .......         ....          ......      ......             ",
"          ......           ......       .....        ......          ......        ....          .......    .......             ",
"          .....             .....       .....       ......            ......       ....           .......  .......              ",
"          .....             .....       .....       .....              .....       ....            ..............               ",
"         .....               .....      .....       .....              .....       ....             ............                ",
"         .....               .....      .....       ....                ....       ....              ..........                 ",
"         .....               .....      .....       ....                ....       ....               ........                  ",
"         .....               .....      .....       ....                ....       ....               ........                  ",
"         .....               .....      .....       ....                ....       ....              ..........                 ",
"         .....               .....      .....       .....              .....       ....             ............                ",
"          .....             .....       .....       .....              .....       ....            ..............               ",
"          .....             .....       .....       ......            ......       ....           .......  .......              ",
"          .......         .......       .....        ......          ......        ....          .......    .......             ",
"           .......       .......        .....         .......      .......         ....          ......      .......            ",
"            ...................         .....         ....................         ....          .....        ......            ",
"             .................          .....          ..................          ....          ....          ....             ",
"              ...............           .....           ................           ....                          .              ",
"                ...........             .....             ............             ....                                         ",
"                  .......               .....                ......                ....                                         ",
"                                        .....                                      ....                                         ",
"                                        .....                                      ....                                         ",
"                                        .....                                      ....                                         ",
"                                        .....                                      ....                                         ",
"                                        .....                                      ....                                         ",
"                                        .....                                      ....                                         ",
"                                        .....                                      ....                                         ",
"                                        .....                                     .....                                         ",
"          ............................................................................................................          ",
"         .............................................................................................................          ",
"         .............................................................................................................          ",
"          ............................................................................................................          ",
"                                        .....                                     ......                                        ",
"                                        .....                                      ....                                         ",
"                                        .....                                      ....                                         ",
"                                        .....                                      ....                                         ",
"                                        .....                                      ....                                         ",
"                                        .....                                      ....                                         ",
"                                        .....                                      ....                                         ",
"                                        .....                                      ....                ......                   ",
"                                        .....                                      ....             ............                ",
"                                        .....           ..                         ....           ................              ",
"                                        .....          ....          ....          ....          ..................             ",
"                                        .....         ......        .....          ....         ....................            ",
"                                        .....         .......      ......          ....         .......      .......            ",
"                                        .....          .......    .......          ....        ......          ......           ",
"                                        .....           .......  .......           ....       ......            ......          ",
"                                        .....            ..............            ....       .....              .....          ",
"                                        .....             ............             ....       .....              .....          ",
"                                        .....              ..........              ....       ....                ....          ",
"                                        .....               ........               ....       ....                ....          ",
"                                        .....               ........               ....       ....                ....          ",
"                                        .....              ..........              ....       ....                ....          ",
"                                        .....             ............             ....       .....              .....          ",
"                                        .....            ..............            ....       .....              .....          ",
"                                        .....           .......  .......           ....       ......            ......          ",
"                                        .....          .......    .......          ....        ......          ......           ",
"                                        .....          ......      ......          ....         .......      .......            ",
"                                        .....          .....        ......         ....         ....................            ",
"                                        .....          ....          ....          ....          ..................             ",
"                                        .....                          .           ....           ................              ",
"                                        .....                                      ....             ............                ",
"                                        .....                                      ....                ......                   ",
"                                        .....                                      ....                                         ",
"                                        .....                                      ....                                         ",
"                                        .....                                      ....                                         ",
"                                        .....                                      ....                                         ",
"                                        .....                                      ....                                         ",
"                                        .....                                      ....                                         ",
"                                        .....                                      ....                                         ",
"          ............................................................................................................          ",
"         ..............................................................................................................         ",
"         ..............................................................................................................         ",
"         ..............................................................................................................         ",
"          ............................................................................................................          ",
"                                        .....                                      ....                                         ",
"                                        .....                                      ....                                         ",
"                                        .....                                      ....                                         ",
"                                        .....                                      ....                                         ",
"                                        .....                                      ....                                         ",
"                                        .....                                      ....                                         ",
"                                        .....                                      ....                                         ",
"                                        .....                ......                ....                                         ",
"                                        .....             ............             ....                                         ",
"             ..                         .....           ................           ....                                         ",
"            ....           ...          .....          ..................          ....                                         ",
"            .....         .....         .....         ....................         ....                                         ",
"            ......       ......         .....         .......      .......         ....                                         ",
"             ......     ......          .....        ......          ......        ....                                         ",
"              ......   ......           .....       ......            ......       ....                                         ",
"               .............            .....       .....              .....       ....                                         ",
"                ...........             .....       .....              .....       ....                                         ",
"                 .........              .....       ....                ....       ....                                         ",
"                  .......               .....       ....                ....       ....                                         ",
"                  .......               .....       ....                ....       ....                                         ",
"                 .........              .....       ....                ....       ....                                         ",
"                ...........             .....       .....              .....       ....                                         ",
"               .............            .....       .....              .....       ....                                         ",
"              ......   ......           .....       ......            ......       ....                                         ",
"             ......     ......          .....        ......          ......        ....                                         ",
"            ......       ......         .....         .......      .......         ....                                         ",
"            .....         .....         .....         ....................         ....                                         ",
"            ....           ....         .....          ..................          ....                                         ",
"                            ..          .....           ................           ....                                         ",
"                                        .....             ............             ....                                         ",
"                                         ...                ........               ...                                          ",
"                                                                                                                                ",
"                                                                                                                                ",
"                                                                                                                                ",
"                                                                                                                                ",
"                                                                                                                                ",
"                                                                                                                                ",
"                                                                                                                                ",
"                                                                                                                                ",
"                                                                                                                                "
};
